/* XPM */
static char *b223d8e606c84feebb9323c4b8c12645GGB803VejbyW9w3J[] = {
/* columns rows colors chars-per-pixel */
"32 32 4 1 ",
"  c gray6",
". c gray11",
"X c #838383",
"o c gray54",
/* pixels */
"XXXXXXXXXXXXXXXXXXXXXXXXXXXXXXXX",
"XXXXXXXXXXXXXXXoXXXXXXXXXXXXXXXX",
"XXXXXXXXXXXXXXXXXXXXXXXXXXXXXXXX",
"XXXXXXXXXXXXXXXXXXXXXXXXXXXXXXXX",
"XXXXXXXXXXXXXXXXXXXXXXXXXXXXXXXX",
"XXXXoXXXXXXXXXXXXXXXXXXXooXXXXXX",
"XXXXoXXXXXXXXXXXXXXXXXXXXXXXXXXX",
"XXXoXXXXXXXXXXXXXXXXXXXXXXXoXXXX",
"XXXXXXXXXXXXXXXXXXXXXXXXXXXXXXXX",
"XXXXXXXXXXXXXXXXXXXXXXXXXXXXXXXX",
"XXXXXXXXXXXXXXXXXXXXXXXXXXXXXXXX",
"XXXXXXXXXXXXXXXXXXXXXXXXXXXXXXXX",
"XXX         XXXXXXXX         XXX",
"XXX ....... XX.XX.XX ....... XXX",
"XXXX........XX....XX........XXXX",
"XXXXX....... X....X .......XXXXX",
"XXXXX........ .... ........XXXXX",
"XXXXX .................... XXXXX",
"XXXXXX....................XXXXXX",
"XXXXXXXX................XXXXXXXX",
"XXXXXXXXXX............XXXXXXXXXX",
"XXXXXXXXXXXX........XXXXoXXXXXXX",
"XXXXXXXXXXXXXX....XXXXXooXXXXXXX",
"XXXXXXXXXXXXXXX..XXXXXXXXXXXXXXX",
"XXXXoXXXXXXXXXXXXXXXXXXXXXXXXXXX",
"XXXXooXXXXXXXXXXXXXXXXXXXXXXXXXX",
"XXXXXXXXXXXXXXXXXXXXXXXXXXXXXXXX",
"XXXXXXXXXXXXXXXXXXXXXXXXXXXXXXXX",
"XXXXXXoXXXoXXXXXXXXXXXoXXXXXXXXX",
"XXXXXXXXXXXXXXXXXXXXXXXXXXXXXXXX",
"XXXXXXXXXXXXXXXXXXXXXXXXXXXXXXXX",
"XXXXXXXXXXXXXXXXXXXXXXXXXXXXXXXX"
};
