/* XPM */
static char *_0b937cd8da34137cf8f2ff70cabf5eahUJtpi1fqLFVXPdK[] = {
/* columns rows colors chars-per-pixel */
"32 32 15 1 ",
"  c black",
". c #131111",
"X c gray11",
"o c #272727",
"O c #2F2F2F",
"+ c #403F3F",
"@ c #766E3F",
"# c #505050",
"$ c #877D47",
"% c #998E50",
"& c #A69A55",
"* c #BFB162",
"= c #838383",
"- c gray54",
"; c #C4C0A7",
/* pixels */
"================================",
"===============-================",
"================================",
"================================",
"================================",
"====-===================--======",
"====-===========================",
"===-=======================-====",
"================================",
"================================",
"================================",
"================================",
"================================",
"================================",
"========-=======================",
"================================",
"================================",
"================================",
"================================",
"================================",
"================================",
"====+XXXXXX*XXXXXX*XXXXX..#=====",
"===+++....X&*&&&***X.... o+#====",
"===-+X+....&......&.... X+++====",
"====-+O ...&&%%%&&;....XO++=====",
"====-+OO  .%......%.  .OO++=====",
"=====-O+O  $@$$$@@$  XO+++======",
"======+++O @      @ OO+++=======",
"======-=+++++++OO++++++=========",
"===========++++++++=============",
"================================",
"================================"
};
