/* XPM */
static char *_5cc170c182b4574c8968b22572d9cc7zL6wPgQxI4QIXP1G[] = {
/* columns rows colors chars-per-pixel */
"32 32 12 1 ",
"  c gray6",
". c #161616",
"X c #272727",
"o c gray17",
"O c #313131",
"+ c #5D5D5D",
"@ c #DEB70E",
"# c #E4A067",
"$ c #E8AE7D",
"% c #838383",
"& c gray54",
"* c #FCEDE1",
/* pixels */
"%%%%%%%%%%%%%%%%%%%%%%%%%%%%%%%%",
"%%%%%%%%%%%%%%%%&%%%%%%%%%%%%%%%",
"%%%%%%%%%%%%%%%%%%%%%%%%%%%%%%%%",
"%%%%%%%%%%%%%%%%%%%%%%%%%%%%%%%%",
"%%%%%%%%%%%%%%%%%%%%%%%%%%%%%%%%",
"%%%%%%&&%%%%%%%%%%%%%%%%%%%&%%%%",
"%%%%%%%%%%%  %%%%%%  %%%%%%&%%%%",
"%%%%&%%%%% X %%%%%% X %%%%%%&%%%",
"%%%%%%%%%% X %%%%%% X %%%%%%%%%%",
"%%%%%%%%%% X        X %%%%%%%%%%",
"%%%%%%%%%% XXXOOOOXXX %%%%%%%%%%",
"%%%%%%%%% XXOOXXOXOOOX %%%%%%%%%",
"%%%%%%%%% XX**XXOX**XX %%%%%%%%%",
"%%%%%%%%% XX**XXXO**XX %%%%%%%%%",
"%%%%%%%%% XXOOOXXXOXXX &%%%%%%%%",
"%%%%%%%%% X###$$$$###X %%%%%%%%%",
"%%%%%%%%% X##$    ###X %..%%%%%%",
"%%%%%%%%%% X########X %%.+.%%%%%",
"%%%%%%%%%%% XXXXXXXX %%...+.%%%%",
"%%%%%%%%%% OoOOoooOoO %.+.+.%%%%",
"%%%%%%%.. O OoO@@@Oo O %.++.%%%%",
"%%%%%%%. O  OO@ @ @o  O +..%%%%%",
"%%%%%...O X OOO@ @Oo . O %%%%%%%",
"%%%%..X..XX oOOOOOOo .+  %%%%%%%",
"%%%%...XXXX OOOOOOOO + %%%%&%%%%",
"%%%%%%%.XXX @@@@  @@  %%%%&&%%%%",
"%%%%%%%.XX. @OOOOO@O %%%%%%%%%%%",
"%%%%%%%%..% Ooo  ooo %%%%%%%%%%%",
"%%%%%%%%%&%    %%    &%%%&%%%%%%",
"%%%%%%%%%%%%%%%%%%%%%%%%%%%%%%%%",
"%%%%%%%%%%%%%%%%%%%%%%%%%%%%%%%%",
"%%%%%%%%%%%%%%%%%%%%%%%%%%%%%%%%"
};
