/* XPM */
static char *_fd2611bddb94292f0e1526edcd8e49bPuunkZ3ug7C5zp5S[] = {
/* columns rows colors chars-per-pixel */
"32 32 12 1 ",
"  c None",
". c #313030",
"X c #B92525",
"o c #F92525",
"O c #B2570B",
"+ c #2E9910",
"@ c #49BD27",
"# c #C8BD0B",
"$ c #457BB0",
"% c #DDC097",
"& c #C2C1BE",
"* c #FCEFDB",
/* pixels */
"                                ",
"                                ",
"                                ",
"                                ",
"                +               ",
"              +++@@++           ",
"             ++++++@@+          ",
"          +++++@+@++++++        ",
"         +@+*%%+@+%%*+@+        ",
"         @+*oo*****oo*+@+       ",
"        ++@**$o***o$**+@+       ",
"        +@@**$$***$$$*+@+       ",
"         @+*$&.***.&$*++        ",
"         @+**$**o**$**%+        ",
"        ++%*o*******o*%@@       ",
"        @@+**ooooooo**++@       ",
"         @++%*ooooo*%+@+        ",
"           ..%*****%..          ",
"          .XX.+%%%+.XX.         ",
"         .XXXO.+++.OXXX.        ",
"         .XXXXO###OXXXX.        ",
"        .++.XXXO#OXXX.++.       ",
"       .%%. .XXO#OXX. .%%.      ",
"       .%%.  .XO#OX.  .%%.      ",
"        ..   .XO#OX.   ..       ",
"            .XXO#OXX.           ",
"            .XXXXXXX.           ",
"           .XXX...XXX.          ",
"           .XX.   .XX.          ",
"          .XX.     .XX.         ",
"           ..       ..          ",
"                                "
};
