/* XPM */
static char *_62d0da8c23b4ffe9651083639a56363EWl8HPDq3FzmFwiR[] = {
/* columns rows colors chars-per-pixel */
"32 32 12 1 ",
"  c gray6",
". c #161616",
"X c #272727",
"o c gray17",
"O c #313131",
"+ c #5D5D5D",
"@ c #DEB70E",
"# c #E4A067",
"$ c #E8AE7D",
"% c #838383",
"& c gray54",
"* c #FCEDE1",
/* pixels */
"%%%%%%%%%%%%%%%%%%%%%%%%%%%%%%%%",
"%%%%%%%%%%%%%%%&%%%%%%%%%%%%%%%%",
"%%%%%%%%%%%%%%%%%%%%%%%%%%%%%%%%",
"%%%%%%%%%%%%%%%%%%%%%%%%%%%%%%%%",
"%%%%%%%%%%%%%%%%%%%%%%%%%%%%%%%%",
"%%%%&%%%%%%%%%%%%%%%%%%%&&%%%%%%",
"%%%%&%%%%%%  %%%%%%  %%%%%%%%%%%",
"%%%&%%%%%% X %%%%%% X %%%%%&%%%%",
"%%%%%%%%%% X %%%%%% X %%%%%%%%%%",
"%%%%%%%%%% X        X %%%%%%%%%%",
"%%%%%%%%%% XXXOOOOXXX %%%%%%%%%%",
"%%%%%%%%% XOOOXOXXOOXX %%%%%%%%%",
"%%%%%%%%% XX**XOXX**XX %%%%%%%%%",
"%%%%%%%%% XX**OXXX**XX %%%%%%%%%",
"%%%%%%%%& XXXOXXXOOOXX %%%%%%%%%",
"%%%%%%%%% X###$$$$###X %%%%%%%%%",
"%%%%%%..% X###    $##X %%%%%%%%%",
"%%%%%.+.%% X########X %%%%%%%%%%",
"%%%%.+...%% XXXXXXXX %%%%%%%%%%%",
"%%%%.+.+.% OoOoooOOoO %%%%%%%%%%",
"%%%%.++.% O oO@@@OoO O ..%%%%%%%",
"%%%%%..+ O  o@ @ @OO  O .%%%%%%%",
"%%%%%%% O . oO@ @OOO X O...%%%%%",
"%%%%%%%  +. oOOOOOOo XX..X..%%%%",
"%%%%&%%%% + OOOOOOOO XXXX...%%%%",
"%%%%&&%%%%  @@  @@@@ XXX.%%%%%%%",
"%%%%%%%%%%% O@OOOOO@ .XX.%%%%%%%",
"%%%%%%%%%%% ooo  ooO %..%%%%%%%%",
"%%%%%%&%%%&    %%    %&%%%%%%%%%",
"%%%%%%%%%%%%%%%%%%%%%%%%%%%%%%%%",
"%%%%%%%%%%%%%%%%%%%%%%%%%%%%%%%%",
"%%%%%%%%%%%%%%%%%%%%%%%%%%%%%%%%"
};
