/* XPM */
static char *_8ba7f09840342b58e7a16308cdd6913QIjTq9gQagNq4i2E[] = {
/* columns rows colors chars-per-pixel */
"32 32 5 1 ",
"  c #451D00",
". c #4F2100",
"X c #522200",
"o c #8A3A01",
"O c #97480F",
/* pixels */
"XXXXXXXXXXXXXXXXXXXXXXXXXXXXXXXX",
"XoOooooooooXoOOooooooXoooooOoOOX",
"XOOooooooooXOOoooooooXooOOoooOoX",
"XOoooooOoooXoooooooooXOOoooooooX",
"XXXX   XXX    XXX  XXXXXXXXXXXXX",
"XoOoOO ooooOOOoOXoooooOOoXOooOOX",
"XOOoOoXooooooOOoXooooooOo OoooOX",
"XoOOooXoOoooooOoXoooooooO OooooX",
"XX   XXXXXXXXXXXXXX   XXX XXXXXX",
"XOOooOOooooXoOooOoooo OOoOoooooX",
"XoOOOooooooXOoOoooooo.oooOOOoooX",
"XOOOooooooOXOooooooooXoooooooooX",
"...XXX  XXX ........XXXXX XXXXXX",
"XOOOoo oOOoooooOXooooooOo oOoooX",
"Xooooo oOooOooooXooooooOoXoOOooX",
"XoooooXOOooooooo ooooOooOXoooooX",
"XX XXXXXXXXXXXX  XXXXXXXXXXXX  X",
"XooooooOOOoXooooooOoOXooooooOOoX",
"XoOooooooooXooooooooOXooooOOOooX",
"XOOoooooooo Ooooooooo oooooooooX",
"XXX.X   XXX  XXXXXXX  XX XXXXXXX",
"XOoOoo oOOOooOOOXooooooooXooOooX",
"XOOoooXooooooOooXooOOOoooXoooOOX",
"XoooooXoOooooOooXoooooOoo ooooOX",
"XXXXXXXXXXXXXXXXXXXX  XXX  XXXXX",
"XoOooooooooXoOoOoOOOXooooOOOOooX",
"XOoooooooooXooooooooXooooooooOOX",
"Xoooooooooo oooooooO oooooooooOX",
"XXXXXXXXX X XXXXXXXX XXXX  XXXXX",
"XooOOOXoOOOoooo ooooooOOo ooOoOX",
"XooOoOXOooOoooo oOOOoOoOoXooooOX",
"XXXXXXXXXXXXXXXXXXXXXXXXXXXXXXXX"
};
